<svg width="11" height="12" viewBox="0 0 11 12" fill="none" xmlns="http://www.w3.org/2000/svg">
<path fill-rule="evenodd" clip-rule="evenodd" d="M5.50033 0.693359C5.86852 0.693359 6.16699 0.991836 6.16699 1.36003V5.36003H10.167C10.5352 5.36003 10.8337 5.65851 10.8337 6.0267C10.8337 6.39489 10.5352 6.69336 10.167 6.69336H6.16699V10.6934C6.16699 11.0616 5.86852 11.36 5.50033 11.36C5.13214 11.36 4.83366 11.0616 4.83366 10.6934V6.69336H0.833659C0.465469 6.69336 0.166992 6.39489 0.166992 6.0267C0.166992 5.65851 0.465469 5.36003 0.833659 5.36003H4.83366V1.36003C4.83366 0.991836 5.13214 0.693359 5.50033 0.693359Z" fill="#F8F8F9"/>
</svg>
